:FULLY-SPECIFIED
:FORCE-ALL-JOINTS-BE-3DOF
:DEGREES
951
root 1.09561 15.2474 32.7457 6.96643 -3.70273 4.80703
lfemur 7.48573 1.51799 4.10022
ltibia -0.183179 0 0
lfoot -29.9842 -12.3605 0.428829
ltoes -34.48 0 0
rfemur -32.4806 -16.6536 -7.15185
rtibia 49.7597 -0 0
rfoot -22.0796 5.26919 0.150117
rtoes -42.1823 0 0
lowerback -2.15446 -0.405106 0.881121
upperback -1.46717 -0.568785 -6.83933
thorax -0.38448 -0.328605 -7.64265
lowerneck -6.57012 0.702247 4.76303
upperneck 0.745936 0.470706 3.20064
head 1.32871 0.321417 0.210111
lclavicle -1.37161e-014 -3.97569e-014 0
lhumerus -59.5059 -44.2249 113.267
lradius 55.3279 -0 0
lwrist 25.6298 0 0
lhand 39.7478 24.5131 -0.00917626
lfingers 7.12502 -0 0
lthumb 62.1867 35.7777 -0.0065408
rclavicle -1.37161e-014 -3.97569e-014 0
rhumerus 4.00559 -41.4043 0.896666
rradius 23.1436 -0 0
rwrist -16.6617 0 0
rhand -42.9225 -52.182 -1.52794
rfingers 7.12502 -0 0
rthumb -15.6707 -82.2658 -1.73029
952
root 1.08386 15.2353 32.739 6.94425 -3.88831 4.7726
lfemur 7.6388 1.67602 4.18296
ltibia -0.22989 0 0
lfoot -30.1508 -12.1154 0.456437
ltoes -34.7571 0 0
rfemur -32.7113 -16.7603 -7.03073
rtibia 49.9731 -0 0
rfoot -22.3146 5.47744 0.160379
rtoes -42.069 0 0
lowerback -2.11605 -0.413686 0.900311
upperback -1.44782 -0.580786 -6.79663
thorax -0.387219 -0.334386 -7.60758
lowerneck -6.54246 0.759685 4.85788
upperneck 0.672485 0.54466 3.19369
head 1.30054 0.356214 0.194098
lclavicle -1.37161e-014 -3.97569e-014 0
lhumerus -59.4881 -44.2282 113.377
lradius 55.2723 -0 0
lwrist 25.6466 0 0
lhand 39.5867 24.5257 -0.0101816
lfingers 7.12502 -0 0
lthumb 62.0522 35.9566 -0.00791968
rclavicle -1.37161e-014 -3.97569e-014 0
rhumerus 4.0773 -41.2869 1.28501
rradius 22.7885 -0 0
rwrist -16.5173 0 0
rhand -42.7268 -52.1591 -1.59686
rfingers 7.12502 -0 0
rthumb -15.4748 -82.2869 -1.81118
953
root 1.0741 15.224 32.7317 6.91373 -4.06608 4.73627
lfemur 7.77928 1.82368 4.26666
ltibia -0.259208 0 0
lfoot -30.2701 -11.9428 0.467205
ltoes -34.9261 0 0
rfemur -32.925 -16.837 -6.91569
rtibia 50.1745 -0 0
rfoot -22.5061 5.66536 0.164812
rtoes -41.9596 0 0
lowerback -2.07794 -0.422923 0.911327
upperback -1.42699 -0.593399 -6.75207
thorax -0.388237 -0.340325 -7.5658
lowerneck -6.51449 0.813135 4.947
upperneck 0.60284 0.613562 3.19354
head 1.27393 0.388589 0.181031
lclavicle -1.37161e-014 -3.97569e-014 0
lhumerus -59.4512 -44.2172 113.473
lradius 55.2195 -0 0
lwrist 25.6446 0 0
lhand 39.4263 24.5469 -0.0108648
lfingers 7.12502 -0 0
lthumb 61.9181 36.1414 -0.00914297
rclavicle -1.37161e-014 -3.97569e-014 0
rhumerus 4.14352 -40.8765 1.56767
rradius 22.6532 -0 0
rwrist -16.3339 0 0
rhand -42.3529 -52.0382 -1.6033
rfingers 7.12502 -0 0
rthumb -15.1118 -82.1939 -1.82164
954
root 1.06614 15.2135 32.724 6.87589 -4.2359 4.69846
lfemur 7.90804 1.96125 4.35073
ltibia -0.273197 0 0
lfoot -30.3476 -11.8341 0.46288
ltoes -35.0002 0 0
rfemur -33.122 -16.887 -6.8068
rtibia 50.3642 -0 0
rfoot -22.6585 5.83414 0.163936
rtoes -41.8543 0 0
lowerback -2.04025 -0.432641 0.915134
upperback -1.4049 -0.606427 -6.70603
thorax -0.387667 -0.346337 -7.51827
lowerneck -6.48652 0.862807 5.03068
upperneck 0.53715 0.677663 3.19932
head 1.24892 0.418671 0.170595
lclavicle -1.37161e-014 -3.97569e-014 0
lhumerus -59.3978 -44.1942 113.558
lradius 55.1697 -0 0
lwrist 25.6263 0 0
lhand 39.2674 24.5756 -0.0112222
lfingers 7.12502 -0 0
lthumb 61.7849 36.3301 -0.0101568
rclavicle -1.37161e-014 -3.97569e-014 0
rhumerus 4.20563 -40.212 1.75593
rradius 22.7103 -0 0
rwrist -16.1169 0 0
rhand -41.825 -51.8313 -1.55654
rfingers 7.12502 -0 0
rthumb -14.6046 -82.0007 -1.7719
955
root 1.05981 15.2038 32.7159 6.83174 -4.39761 4.65959
lfemur 8.02593 2.08898 4.43459
ltibia -0.273925 0 0
lfoot -30.3888 -11.7808 0.445405
ltoes -34.9923 0 0
rfemur -33.3031 -16.9135 -6.70406
rtibia 50.5424 -0 0
rfoot -22.7763 5.98498 0.158344
rtoes -41.7536 0 0
lowerback -2.0031 -0.442663 0.912696
upperback -1.38173 -0.619674 -6.6589
thorax -0.385642 -0.352342 -7.46599
lowerneck -6.45888 0.908913 5.10921
upperneck 0.475563 0.73721 3.21014
head 1.22556 0.446587 0.162473
lclavicle -1.37161e-014 -3.97569e-014 0
lhumerus -59.3303 -44.1614 113.634
lradius 55.1226 -0 0
lwrist 25.594 0 0
lhand 39.1106 24.6102 -0.0112593
lfingers 7.12502 -0 0
lthumb 61.6531 36.5212 -0.0109193
rclavicle -1.37161e-014 -3.97569e-014 0
rhumerus 4.26333 -39.3324 1.86207
rradius 22.9324 -0 0
rwrist -15.8719 0 0
rhand -41.1673 -51.5502 -1.4662
rfingers 7.12502 -0 0
rthumb -13.9758 -81.721 -1.67259
956
root 1.05492 15.1948 32.7076 6.78228 -4.55106 4.62008
lfemur 8.1338 2.20713 4.51768
ltibia -0.263455 0 0
lfoot -30.399 -11.7743 0.416863
ltoes -34.9155 0 0
rfemur -33.4689 -16.9197 -6.60743
rtibia 50.7091 -0 0
rfoot -22.864 6.11905 0.148694
rtoes -41.6578 0 0
lowerback -1.96661 -0.452815 0.904978
upperback -1.3577 -0.63294 -6.61109
thorax -0.382295 -0.358256 -7.40993
lowerneck -6.43187 0.951663 5.18289
upperneck 0.418223 0.792447 3.22514
head 1.20389 0.472465 0.156351
lclavicle -1.37161e-014 -3.97569e-014 0
lhumerus -59.2515 -44.121 113.7
lradius 55.0784 -0 0
lwrist 25.5501 0 0
lhand 38.9565 24.6495 -0.0109899
lfingers 7.12502 -0 0
lthumb 61.5234 36.7127 -0.0114003
rclavicle -1.37161e-014 -3.97569e-014 0
rhumerus 4.31541 -38.2766 1.89886
rradius 23.292 -0 0
rwrist -15.6044 0 0
rhand -40.4039 -51.2066 -1.34197
rfingers 7.12502 -0 0
rthumb -13.2479 -81.3682 -1.53444
957
root 1.05129 15.1865 32.699 6.72852 -4.69611 4.58031
lfemur 8.2325 2.31597 4.59942
ltibia -0.243853 0 0
lfoot -30.3837 -11.8061 0.379426
ltoes -34.7828 0 0
rfemur -33.62 -16.9088 -6.51683
rtibia 50.8647 -0 0
rfoot -22.9261 6.23752 0.135695
rtoes -41.5673 0 0
lowerback -1.93088 -0.462926 0.892946
upperback -1.33301 -0.646028 -6.56299
thorax -0.377758 -0.363996 -7.35106
lowerneck -6.4058 0.99127 5.25201
upperneck 0.365272 0.843615 3.24342
head 1.18397 0.496433 0.151913
lclavicle -1.37161e-014 -3.97569e-014 0
lhumerus -59.164 -44.0752 113.759
lradius 55.0369 -0 0
lwrist 25.4971 0 0
lhand 38.8057 24.6921 -0.0104373
lfingers 7.12502 -0 0
lthumb 61.3963 36.9031 -0.0115817
rclavicle -1.37161e-014 -3.97569e-014 0
rhumerus 4.36042 -37.0838 1.87907
rradius 23.7616 -0 0
rwrist -15.3198 0 0
rhand -39.5591 -50.8121 -1.19334
rfingers 7.12502 -0 0
rthumb -12.4436 -80.956 -1.36801
958
root 1.04872 15.1789 32.6903 6.67145 -4.8326 4.54069
lfemur 8.32288 2.41574 4.67929
ltibia -0.217186 0 0
lfoot -30.3483 -11.8678 0.335316
ltoes -34.6074 0 0
rfemur -33.7571 -16.8839 -6.43215
rtibia 51.0094 -0 0
rfoot -22.967 6.34157 0.120101
rtoes -41.4825 0 0
lowerback -1.89605 -0.472823 0.877564
upperback -1.30786 -0.658739 -6.51498
thorax -0.372163 -0.369482 -7.29038
lowerneck -6.38097 1.02794 5.31686
upperneck 0.316847 0.890952 3.26412
head 1.16584 0.518616 0.148842
lclavicle -1.37161e-014 -3.97569e-014 0
lhumerus -59.0703 -44.0262 113.811
lradius 54.9982 -0 0
lwrist 25.4372 0 0
lhand 38.6588 24.7365 -0.0096331
lfingers 7.12502 -0 0
lthumb 61.2724 37.0906 -0.0114562
rclavicle -1.37161e-014 -3.97569e-014 0
rhumerus 4.39712 -35.793 1.81519
rradius 24.314 -0 0
rwrist -15.0238 0 0
rhand -38.6568 -50.379 -1.02935
rfingers 7.12502 -0 0
rthumb -11.5855 -80.4984 -1.18337
959
root 1.04704 15.1718 32.6814 6.61206 -4.96038 4.5016
lfemur 8.40578 2.50671 4.75673
ltibia -0.185517 0 0
lfoot -30.2982 -11.9509 0.286769
ltoes -34.4024 0 0
rfemur -33.8809 -16.8481 -6.35322
rtibia 51.1433 -0 0
rfoot -22.9913 6.43234 0.102702
rtoes -41.4037 0 0
lowerback -1.86222 -0.482337 0.859798
upperback -1.28245 -0.670871 -6.46746
thorax -0.365641 -0.374628 -7.22885
lowerneck -6.3577 1.0619 5.37773
upperneck 0.273087 0.934695 3.28635
head 1.14955 0.539141 0.146824
lclavicle -1.37161e-014 -3.97569e-014 0
lhumerus -58.9731 -43.9761 113.859
lradius 54.9621 -0 0
lwrist 25.373 0 0
lhand 38.5165 24.7814 -0.00861747
lfingers 7.12502 -0 0
lthumb 61.1521 37.2734 -0.0110279
rclavicle -1.37161e-014 -3.97569e-014 0
rhumerus 4.42479 -34.4433 1.71923
rradius 24.9216 -0 0
rwrist -14.7218 0 0
rhand -37.7215 -49.9196 -0.858405
rfingers 7.12502 -0 0
rthumb -10.6964 -80.0096 -0.989988
960
root 1.04606 15.1653 32.6725 6.55137 -5.07928 4.46343
lfemur 8.48207 2.58912 4.83122
ltibia -0.150913 0 0
lfoot -30.2387 -12.0469 0.236015
ltoes -34.1806 0 0
rfemur -33.9923 -16.8048 -6.27989
rtibia 51.2666 -0 0
rfoot -23.0033 6.51101 0.0843157
rtoes -41.3313 0 0
lowerback -1.82952 -0.491299 0.840615
upperback -1.25698 -0.682225 -6.42083
thorax -0.358323 -0.379353 -7.16746
lowerneck -6.33627 1.09334 5.43493
upperneck 0.234127 0.975078 3.30923
head 1.13513 0.558134 0.14554
lclavicle -1.37161e-014 -3.97569e-014 0
lhumerus -58.875 -43.9272 113.903
lradius 54.9288 -0 0
lwrist 25.3067 0 0
lhand 38.3793 24.8255 -0.0074386
lfingers 7.12502 -0 0
lthumb 61.0361 37.4497 -0.0103105
rclavicle -1.37161e-014 -3.97569e-014 0
rhumerus 4.44348 -33.0738 1.6027
rradius 25.557 -0 0
rwrist -14.4193 0 0
rhand -36.7777 -49.4466 -0.688209
rfingers 7.12502 -0 0
rthumb -9.79937 -79.5043 -0.796565
961
root 1.04559 15.1593 32.6637 6.49037 -5.18915 4.42655
lfemur 8.55257 2.66325 4.90222
ltibia -0.11544 0 0
lfoot -30.1754 -12.1472 0.185254
ltoes -33.9553 0 0
rfemur -34.0918 -16.757 -6.21194
rtibia 51.3796 -0 0
rfoot -23.0075 6.57873 0.0657806
rtoes -41.2657 0 0
lowerback -1.79806 -0.499542 0.820979
upperback -1.23166 -0.692599 -6.37547
thorax -0.35034 -0.383572 -7.10718
lowerneck -6.317 1.12249 5.48874
upperneck 0.200102 1.01233 3.33187
head 1.12264 0.575721 0.144675
lclavicle -1.37161e-014 -3.97569e-014 0
lhumerus -58.7785 -43.8817 113.945
lradius 54.898 -0 0
lwrist 25.2408 0 0
lhand 38.2479 24.8674 -0.00615207
lfingers 7.12502 -0 0
lthumb 60.925 37.6179 -0.00932714
rclavicle -1.37161e-014 -3.97569e-014 0
rhumerus 4.45402 -31.7237 1.47659
rradius 26.1929 -0 0
rwrist -14.1219 0 0
rhand -35.8502 -48.973 -0.52563
rfingers 7.12502 -0 0
rthumb -8.9176 -78.9974 -0.610936
962
root 1.04546 15.1537 32.655 6.43004 -5.28982 4.39133
lfemur 8.61816 2.72933 4.96921
ltibia -0.0811622 0 0
lfoot -30.1135 -12.2434 0.136654
ltoes -33.7395 0 0
rfemur -34.1802 -16.7078 -6.14917
rtibia 51.4824 -0 0
rfoot -23.0084 6.63668 0.0479526
rtoes -41.2072 0 0
lowerback -1.76796 -0.5069 0.801858
upperback -1.20668 -0.701792 -6.33178
thorax -0.341822 -0.3872 -7.049
lowerneck -6.30018 1.14956 5.53946
upperneck 0.171145 1.04669 3.35339
head 1.11213 0.592028 0.143913
lclavicle -1.37161e-014 -3.97569e-014 0
lhumerus -58.6863 -43.8416 113.985
lradius 54.8698 -0 0
lwrist 25.1778 0 0
lhand 38.1229 24.9057 -0.00482011
lfingers 7.12502 -0 0
lthumb 60.8192 37.7763 -0.00810919
rclavicle -1.37161e-014 -3.97569e-014 0
rhumerus 4.45801 -30.4321 1.35154
rradius 26.8017 -0 0
rwrist -13.8351 0 0
rhand -34.9637 -48.5125 -0.376707
rfingers 7.12502 -0 0
rthumb -8.07461 -78.5045 -0.440064
